<?xml version="1.0" encoding="utf-8"?>
<!-- Generator: Adobe Illustrator 19.0.0, SVG Export Plug-In . SVG Version: 6.00 Build 0)  -->
<svg version="1.1" id="Layer_1" xmlns="http://www.w3.org/2000/svg" xmlns:xlink="http://www.w3.org/1999/xlink" x="0px" y="0px"
	 viewBox="0 0 1000 1000" style="enable-background:new 0 0 1000 1000;" xml:space="preserve">
<style type="text/css">
	.st0{fill:#FFFFFF;}
	.st1{fill:#E2BF26;stroke:#000000;stroke-width:7;}
</style>
<g id="XMLID_65_">
	<path id="XMLID_79_" d="M568.5,124.5c36.1,3.7,71,12.6,104.4,26.7c78.1,33.1,138.5,86.3,181,159.7c23.2,40.1,38.2,83.1,45.1,128.9
		c1.8,12,2.6,24.1,3.9,36.1c0.2,1.6,0.5,3.2,0.7,4.8c0,11,0,22,0,33c-0.7,7.8-1.4,15.6-2.3,23.4c-4.4,42.6-15.8,83.3-34.6,121.8
		c-43.2,88.5-110.8,151-202.2,187.6c-30.9,12.3-63,20-96.1,23.4c-7.8,0.8-15.6,1.5-23.4,2.3c-11,0-22,0-33,0
		c-5.1-0.5-10.2-1-15.2-1.5c-45.6-3.8-89.3-15.3-130.3-35.5C268.6,787,203,710.5,169.9,606.4c-9.1-28.6-14.1-57.9-15.7-87.9
		c-0.1-1.6-0.5-3.2-0.7-4.7c0-11,0-22,0-33c0.5-5.1,1-10.1,1.5-15.2c3.8-45.8,15.4-89.5,35.7-130.7c45-91.6,115.6-155.1,211.3-190.5
		c30.5-11.3,62-18,94.4-20.6c5.2-0.4,10.4-1,15.6-1.5c11,0,22,0,33,0C552.9,123,560.7,123.7,568.5,124.5z M526.1,294
		c-42.5,9.2-84.7,7.5-126.3-5c-26.6-8-52.9-17.2-79.3-25.9c-12.5-4.1-24.8,2.1-27.1,14.6c-0.8,4.2,0.1,9,1.4,13.1
		c8,24.9,16.8,49.6,24.4,74.7c7.8,25.5,12.2,51.8,11.7,78.6c-0.4,21.1-3.7,41.7-8.2,62.3c-10.5,47.6-1.9,92.2,23.5,133.3
		c28.1,45.5,68.3,75.6,120.5,88.1c52.3,12.6,100.6,3.2,143.5-30.2c1.2-0.9,2.5-1.8,3.4-2.9c7.2-8.3,17.4-12.4,26.1-18.5
		c30.6-21.5,55.3-48.5,74.9-80.3c1.4-2.2,3-4.3,4.7-6.2c24.3-25.4,39.2-55.5,43-90.3c7.5-67.2-17.1-122.1-66.9-166.3
		c-26-23-56.5-37.4-90.8-43.1c-11-1.8-22.3-2.3-33.5-3.4c0,0.3,0,0.6-0.1,0.9C555.9,287.4,541,290.8,526.1,294z M299.7,728.5
		C429.1,857,638.2,853.9,764,722c125.3-131.5,119.4-338.2-12.6-461.8c-131.3-123-317.4-107.5-425.7-16.8c5,1.8,9.7,3.4,14.5,5.1
		c9.3,3.2,18.6,6.6,28,9.6c1.7,0.5,4.3,0.4,5.8-0.6c31-19.7,64.4-33.3,100.5-40.2c31.7-6,63.5-6.8,95.5-2.2
		c49.9,7.2,94.9,26.2,134.4,57.5c55.3,43.7,91.3,100.2,103.8,169.7c18.7,104-10.8,193.3-87.8,265.9c-40.8,38.4-89.8,61.3-145.2,70.3
		c-141.3,23-277.2-60.8-319-196.8c-11.4-37.1-15-75-11.2-113.7c4.5-44.9,19-86.3,43.3-124.3c1.8-2.8,2.1-5.2,1-8.3
		c-4.9-13.6-9.6-27.3-14.6-41.3C178.6,410.5,171.7,601.3,299.7,728.5z"/>
	<path id="XMLID_78_" class="st0" d="M903.6,513.8c-0.7,7.8-1.4,15.6-2.3,23.4c-4.4,42.6-15.8,83.3-34.6,121.8
		c-43.2,88.5-110.8,151-202.2,187.6c-30.9,12.3-63,20-96.1,23.4c-7.8,0.8-15.6,1.5-23.4,2.3c119.4,0,238.9,0,358.5,0
		C903.6,752.8,903.6,633.3,903.6,513.8z"/>
	<path id="XMLID_77_" class="st0" d="M512.1,872.3c-5.1-0.5-10.2-1-15.2-1.5c-45.6-3.8-89.3-15.3-130.3-35.5
		C268.6,787,203,710.5,169.9,606.4c-9.1-28.6-14.1-57.9-15.7-87.9c-0.1-1.6-0.5-3.2-0.7-4.7c0,119.5,0,239,0,358.5
		C273.1,872.3,392.6,872.3,512.1,872.3z"/>
	<path id="XMLID_76_" class="st0" d="M545.1,122.3c7.8,0.7,15.6,1.4,23.5,2.3c36.1,3.7,71,12.6,104.4,26.7
		c78.1,33.1,138.5,86.3,181,159.7c23.2,40.1,38.2,83.1,45.1,128.9c1.8,12,2.6,24.1,3.9,36.1c0.2,1.6,0.5,3.2,0.7,4.8
		c0-119.4,0-238.9,0-358.5C784.1,122.3,664.6,122.3,545.1,122.3z"/>
	<path id="XMLID_75_" class="st0" d="M153.6,480.8c0.5-5.1,1-10.1,1.5-15.2c3.8-45.8,15.4-89.5,35.7-130.7
		c45-91.6,115.6-155.1,211.3-190.5c30.5-11.3,62-18,94.4-20.6c5.2-0.4,10.4-1,15.6-1.5c-119.5,0-239,0-358.5,0
		C153.6,241.8,153.6,361.3,153.6,480.8z"/>
	<path id="XMLID_70_" class="st0" d="M571.3,286.5c11.2,1.1,22.4,1.6,33.5,3.4c34.3,5.7,64.9,20.1,90.8,43.1
		c49.9,44.1,74.4,99.1,66.9,166.3c-3.9,34.8-18.7,65-43,90.3c-1.8,1.9-3.4,4-4.7,6.2c-19.6,31.8-44.3,58.8-74.9,80.3
		c-8.7,6.1-18.9,10.2-26.1,18.5c-1,1.1-2.2,2-3.4,2.9c-42.9,33.3-91.2,42.7-143.5,30.2c-52.1-12.5-92.4-42.6-120.5-88.1
		c-25.4-41.1-33.9-85.7-23.5-133.3c4.5-20.5,7.9-41.2,8.2-62.3c0.4-26.8-3.9-53.1-11.7-78.6c-7.7-25-16.5-49.7-24.4-74.7
		c-1.3-4.1-2.2-9-1.4-13.1c2.3-12.5,14.6-18.8,27.1-14.6c26.4,8.7,52.7,17.9,79.3,25.9c41.6,12.6,83.7,14.2,126.3,5
		c14.9-3.2,29.8-6.6,45.1-6.6C571.3,287.2,571.3,286.8,571.3,286.5z M359.1,338.1c24.2,58.8,49.8,116.9,80.3,172.7
		c12.4,22.7,24.5,45.8,41.6,65.3c26.8,30.5,60,51,100.5,58.1c16.1,2.8,32.2,2.2,47.5-4.4c3.5-1.5,6.8-3.7,9.6-6.2
		c4.3-3.7,8-8.2,12.4-12c9.3-8,13-18.7,14.7-30.3c3.7-24.7-2.1-47.9-12.4-70.1c-16.9-36.6-43.6-63.9-78.3-84.3
		c-47-27.7-95.7-51.8-145.6-73.5c-24.5-10.7-49.2-20.8-73.8-31.2c-0.9-0.4-1.8-0.7-3.7-1.4C354.6,327.1,356.8,332.6,359.1,338.1z
		 M719,512.4c11.2-41.7,3-80.4-20.6-115.7c-23.4-35.1-56.2-57.3-97.6-66.2c-18.5-3.9-36.9-3.2-55.4,0.6c-15,3-30.3,4.9-45.4,7.3
		c-0.8,0.1-1.7,0.3-3.6,0.6c6.4,3,11.8,5.6,17.2,8.2c34.5,16.7,68.8,33.9,100.2,56.1c43.1,30.5,72.7,70.8,87.5,121.6
		c0.8,2.8,1.4,5.6,2,8.4c0.6,2.8,1.2,5.6,1.9,9.3C711.8,532.8,716.2,522.9,719,512.4z M367,490.8c-1.9,11.4-4.6,22.8-6.4,34.2
		c-3.8,24-0.6,47.4,8.7,69.7c19.9,47.5,54.3,79.3,104.2,93.1c32.4,9,64,6.1,94.1-9.8c1.9-1,3.8-2.2,5.9-3.5
		c-9.1-2.4-17.9-4.2-26.3-7.1c-46.8-16-84.3-44.4-112.6-84.8c-22.8-32.5-40.5-67.9-57.6-103.6c-1.9-4-3.9-8.1-5.8-12.1
		c-0.1-0.2-0.3-0.4-0.8-0.9C369.2,474.5,368.4,482.7,367,490.8z"/>
	<path id="XMLID_69_" class="st0" d="M274.7,294.2c-96.1,116.3-103,307.1,25,434.3C429.1,857,638.2,853.9,764,722
		c125.3-131.5,119.4-338.2-12.6-461.8c-131.3-123-317.4-107.5-425.7-16.8c5,1.8,9.7,3.4,14.5,5.1c9.3,3.2,18.6,6.6,28,9.6
		c1.7,0.5,4.3,0.4,5.8-0.6c31-19.7,64.4-33.3,100.5-40.2c31.7-6,63.5-6.8,95.5-2.2c49.9,7.2,94.9,26.2,134.4,57.5
		c55.3,43.7,91.3,100.2,103.8,169.7c18.7,104-10.8,193.3-87.8,265.9c-40.8,38.4-89.8,61.3-145.2,70.3
		c-141.3,23-277.2-60.8-319-196.8c-11.4-37.1-15-75-11.2-113.7c4.5-44.9,19-86.3,43.3-124.3c1.8-2.8,2.1-5.2,1-8.3
		C284.4,321.9,279.7,308.2,274.7,294.2z"/>
	<path id="XMLID_67_" d="M705.4,542.7c6.4-9.9,10.8-19.8,13.6-30.3c11.2-41.7,3-80.4-20.6-115.7c-23.4-35.1-56.2-57.3-97.6-66.2
		c-18.5-3.9-36.9-3.2-55.4,0.6c-15,3-30.3,4.9-45.4,7.3c-0.8,0.1-1.7,0.3-3.6,0.6c6.4,3,11.8,5.6,17.2,8.2
		c34.5,16.7,68.8,33.9,100.2,56.1c43.1,30.5,72.7,70.8,87.5,121.6c0.8,2.8,1.4,5.6,2,8.4C704.1,536.2,704.6,539,705.4,542.7z"/>
	<path id="XMLID_66_" d="M370.3,465.9c-1.1,8.7-2,16.8-3.3,24.9c-1.9,11.4-4.6,22.8-6.4,34.2c-3.8,24-0.6,47.4,8.7,69.7
		c19.9,47.5,54.3,79.3,104.2,93.1c32.4,9,64,6.1,94.1-9.8c1.9-1,3.8-2.2,5.9-3.5c-9.1-2.4-17.9-4.2-26.3-7.1
		c-46.8-16-84.3-44.4-112.6-84.8c-22.8-32.5-40.5-67.9-57.6-103.6c-1.9-4-3.9-8.1-5.8-12.1C371,466.6,370.8,466.4,370.3,465.9z"/>
</g>
<g id="XMLID_1_">
	<path id="XMLID_2_" class="st1" d="M650.6,597.1l-18.1,17.8l-24.4-24.8c-36,29.9-73.1,34.8-111.3,14.5l22.2-35.1
		c23.7,13.8,45.4,12.4,64.9-4l-52.1-53c-29.1,17.8-51.3,26.1-66.6,24.8c-15.4-1.3-28.8-7.8-40.2-19.4
		c-29.6-30.1-27.7-66.2,5.7-108.2l-19-19.3l18.1-17.8l19,19.3c31.3-23.8,62.4-27.3,93.2-10.6l-21.6,32.5c-18.2-9.2-34-8.3-47.4,2.8
		l46,46.8c22.4-12.2,38-20,46.7-23.3c8.7-3.3,19.3-3.4,31.9-0.5c12.5,3,23.9,9.7,34.2,20.2c14.6,14.8,21.7,32.1,21.2,51.9
		c-0.4,19.8-9.4,40-27,60.5L650.6,597.1z M602,547.7c8.3-8.3,12.9-17.7,13.9-28.1c0.9-10.4-2.4-19.5-10.1-27.3
		c-12.8-13.1-30.9-11.7-54.3,4.1L602,547.7z M455,434.4c-7.7,7.7-12.3,16.1-13.8,25c-1.5,8.9,1.4,17.1,8.7,24.5
		c12.3,12.5,28.8,11,49.4-4.5L455,434.4z"/>
</g>
</svg>
